<svg width="20" height="16" viewBox="0 0 20 16" fill="none" xmlns="http://www.w3.org/2000/svg">
<g clip-path="url(#clip0_722_4994)">
<path fill-rule="evenodd" clip-rule="evenodd" d="M12.1295 5.27894C12.6091 5.59566 13.1731 5.76471 13.7499 5.76471C14.5235 5.76471 15.2653 5.46103 15.8123 4.92048C16.1579 4.57896 16.4078 4.16056 16.545 3.70596H19.1667C19.3877 3.70596 19.5996 3.61919 19.7559 3.46475C19.9122 3.31031 20 3.10084 20 2.88243C20 2.66401 19.9122 2.45455 19.7559 2.30011C19.5996 2.14566 19.3877 2.0589 19.1667 2.0589H16.545C16.4622 1.78426 16.3379 1.52188 16.175 1.281C15.8546 0.807004 15.399 0.437566 14.8661 0.219407C14.3331 0.00124885 13.7467 -0.0558313 13.1809 0.0553849C12.6151 0.166601 12.0954 0.441119 11.6875 0.844223C11.344 1.18369 11.0928 1.60151 10.9548 2.0589H0.833333C0.61232 2.0589 0.400358 2.14566 0.244078 2.30011C0.0877973 2.45455 0 2.66401 0 2.88243C0 3.10084 0.0877973 3.31031 0.244078 3.46475C0.400358 3.61919 0.61232 3.70596 0.833333 3.70596H10.9549C10.9834 3.80044 11.0168 3.89371 11.0553 3.98538C11.276 4.51206 11.6499 4.96223 12.1295 5.27894ZM12.5 2.89125C12.5005 2.96883 12.5085 3.04654 12.5239 3.12335C12.5722 3.36297 12.6912 3.58308 12.866 3.75584C13.0409 3.9286 13.2636 4.04625 13.5061 4.09391C13.7485 4.14158 13.9999 4.11711 14.2283 4.02362C14.4567 3.93012 14.6519 3.77179 14.7893 3.56865C14.9266 3.3655 14.9999 3.12667 14.9999 2.88235C14.9999 2.55473 14.8682 2.24053 14.6338 2.00887C14.3994 1.77721 14.0814 1.64706 13.7499 1.64706C13.5027 1.64706 13.261 1.71951 13.0555 1.85524C12.8499 1.99098 12.6897 2.18391 12.5951 2.40963C12.5331 2.55749 12.5011 2.71508 12.5 2.87355C12.5 2.87651 12.5 2.87947 12.5 2.88243C12.5 2.88537 12.5 2.88831 12.5 2.89125Z" fill="#111224"/>
<path fill-rule="evenodd" clip-rule="evenodd" d="M4.62938 15.2789C5.10903 15.5957 5.67294 15.7647 6.2498 15.7647C7.02335 15.7647 7.76521 15.461 8.31219 14.9205C8.65778 14.579 8.90769 14.1606 9.04487 13.706H19.1667C19.3877 13.706 19.5996 13.6192 19.7559 13.4648C19.9122 13.3103 20 13.1008 20 12.8824C20 12.664 19.9122 12.4545 19.7559 12.3001C19.5996 12.1457 19.3877 12.0589 19.1667 12.0589H9.04491C8.96206 11.7843 8.83778 11.5219 8.67492 11.281C8.35443 10.807 7.89891 10.4376 7.36596 10.2194C6.83301 10.0012 6.24656 9.94417 5.68078 10.0554C5.11501 10.1666 4.59531 10.4411 4.1874 10.8442C3.84389 11.1837 3.59266 11.6015 3.45469 12.0589H0.833333C0.61232 12.0589 0.400358 12.1457 0.244078 12.3001C0.0877973 12.4545 0 12.664 0 12.8824C0 13.1008 0.0877973 13.3103 0.244078 13.4648C0.400358 13.6192 0.61232 13.706 0.833333 13.706H3.45473C3.48324 13.8004 3.51673 13.8937 3.55515 13.9854C3.7759 14.5121 4.14974 14.9622 4.62938 15.2789ZM4.99988 12.8965C5.00076 12.9723 5.0087 13.0483 5.02382 13.1233C5.07205 13.363 5.1911 13.5831 5.36591 13.7558C5.54073 13.9286 5.76346 14.0462 6.00593 14.0939C6.24841 14.1416 6.49974 14.1171 6.72815 14.0236C6.95656 13.9301 7.15178 13.7718 7.28914 13.5686C7.42649 13.3655 7.4998 13.1267 7.4998 12.8824C7.4998 12.5547 7.3681 12.2405 7.13368 12.0089C6.89926 11.7772 6.58132 11.6471 6.2498 11.6471C6.00257 11.6471 5.7609 11.7195 5.55534 11.8552C5.34977 11.991 5.18956 12.1839 5.09495 12.4096C5.03365 12.5559 5.00168 12.7116 4.99988 12.8683C4.99996 12.873 5 12.8777 5 12.8824C5 12.8871 4.99996 12.8918 4.99988 12.8965Z" fill="#111224"/>
</g>
<defs>
<clipPath id="clip0_722_4994">
<rect width="20" height="16" fill="white"/>
</clipPath>
</defs>
</svg>
