<svg width="19" height="16" viewBox="0 0 19 16" fill="none" xmlns="http://www.w3.org/2000/svg">
<path fill-rule="evenodd" clip-rule="evenodd" d="M0 0.8C0 0.358172 0.354443 0 0.791671 0H14.25C14.6872 0 15.0416 0.358172 15.0416 0.8C15.0416 1.24183 14.6872 1.6 14.25 1.6H0.791671C0.354443 1.6 0 1.24183 0 0.8ZM14.2502 4.79987C14.6874 4.79987 15.0418 5.15804 15.0418 5.59987V13.2687L17.6487 10.6348C17.9578 10.3224 18.4591 10.3224 18.7683 10.6349C19.0774 10.9473 19.0774 11.4538 18.7682 11.7662L14.8099 15.7656C14.7231 15.8533 14.6212 15.9164 14.5126 15.9548C14.4541 15.9756 14.3924 15.9897 14.3284 15.996C14.2764 16.0012 14.2239 16.0012 14.1719 15.996C14.1079 15.9897 14.0462 15.9756 13.9877 15.9548C13.8791 15.9164 13.7772 15.8533 13.6904 15.7656L9.73202 11.7656C9.42285 11.4532 9.42285 10.9466 9.73202 10.6342C10.0412 10.3218 10.5424 10.3218 10.8516 10.6342L13.4585 13.2685V5.59987C13.4585 5.15804 13.8129 4.79987 14.2502 4.79987ZM0.791671 6.39999C0.354443 6.39999 0 6.75816 0 7.19999C0 7.64182 0.354443 7.99999 0.791671 7.99999H7.91661C8.35384 7.99999 8.70828 7.64182 8.70828 7.19999C8.70828 6.75816 8.35384 6.39999 7.91661 6.39999H0.791671ZM0.791671 12.8C0.354443 12.8 0 13.1581 0 13.6C0 14.0418 0.354443 14.4 0.791671 14.4H6.33337C6.77059 14.4 7.12504 14.0418 7.12504 13.6C7.12504 13.1581 6.77059 12.8 6.33337 12.8H0.791671Z" fill="#101010"/>
</svg>
